<?xml version="1.0" standalone="no"?>
<!DOCTYPE svg PUBLIC "-//W3C//DTD SVG 20010904//EN"
 "http://www.w3.org/TR/2001/REC-SVG-20010904/DTD/svg10.dtd">
<svg version="1.0" xmlns="http://www.w3.org/2000/svg"
 width="512.000000pt" height="512.000000pt" viewBox="0 0 512.000000 512.000000"
 preserveAspectRatio="xMidYMid meet">
<metadata>
Created by potrace 1.11, written by Peter Selinger 2001-2013
</metadata>
<g transform="translate(0.000000,512.000000) scale(0.100000,-0.100000)"
fill="#000000" stroke="none">
<path d="M2400 5114 c-464 -44 -847 -191 -1205 -463 -191 -145 -408 -386 -542
-602 -156 -250 -277 -584 -317 -874 -36 -263 -39 -218 98 -1437 69 -615 132
-1145 141 -1179 35 -136 102 -246 213 -351 105 -99 253 -173 385 -193 44 -7
47 -6 47 14 0 12 -70 686 -156 1499 -122 1156 -154 1493 -149 1550 29 343 258
648 579 773 85 33 222 59 310 59 151 0 337 -52 467 -131 69 -41 218 -177 268
-243 l22 -30 16 23 c78 112 220 231 348 292 136 66 217 83 390 83 134 -1 160
-4 238 -27 308 -94 534 -321 622 -623 48 -164 51 -114 -119 -1731 -86 -815
-156 -1489 -156 -1498 0 -24 51 -19 153 15 242 82 429 273 491 506 20 72 266
2269 266 2372 0 151 -29 347 -80 539 -139 520 -479 988 -945 1298 -283 188
-655 319 -1004 355 -95 9 -298 11 -381 4z"/>
<path d="M1732 3290 c-130 -79 -74 -280 78 -280 152 0 208 201 78 280 -20 12
-51 20 -78 20 -27 0 -58 -8 -78 -20z"/>
<path d="M3232 3290 c-130 -79 -74 -280 78 -280 85 0 150 65 150 150 0 85 -65
150 -150 150 -27 0 -58 -8 -78 -20z"/>
</g>
</svg>
